<?xml version="1.0" encoding="utf-8"?>
<!-- Generator: Adobe Illustrator 18.0.0, SVG Export Plug-In . SVG Version: 6.00 Build 0)  -->
<!DOCTYPE svg PUBLIC "-//W3C//DTD SVG 1.1//EN" "http://www.w3.org/Graphics/SVG/1.1/DTD/svg11.dtd">
<svg version="1.1" id="Capa_1" xmlns="http://www.w3.org/2000/svg" xmlns:xlink="http://www.w3.org/1999/xlink" x="0px" y="0px"
	 viewBox="0 67 13.1 13.3" enable-background="new 0 67 13.1 13.3" xml:space="preserve">
<path fill="#FFFFFF" d="M9,67H4.1C1.8,67,0,68.9,0,71.1V76c0,2.2,1.8,4.1,4.1,4.1H9c2.2,0,4.1-1.8,4.1-4.1v-4.9
	C13,68.9,11.2,67,9,67z M11.8,76c0,1.6-1.3,2.8-2.8,2.8H4.1c-1.6,0-2.8-1.3-2.8-2.8v-4.9c0-1.6,1.3-2.8,2.8-2.8H9
	c1.6,0,2.8,1.3,2.8,2.8V76z"/>
<path fill="#FFFFFF" d="M6.5,70.3c-1.8,0-3.3,1.5-3.3,3.3s1.5,3.3,3.3,3.3s3.3-1.5,3.3-3.3S8.3,70.3,6.5,70.3z M6.5,75.6
	c-1.1,0-2-0.9-2-2c0-1.1,0.9-2,2-2s2,0.9,2,2C8.5,74.7,7.6,75.6,6.5,75.6z"/>
<circle fill="#FFFFFF" cx="10" cy="70" r="0.4"/>
</svg>
