<?xml version="1.0" encoding="utf-8"?>
<!-- Generator: Adobe Illustrator 18.0.0, SVG Export Plug-In . SVG Version: 6.00 Build 0)  -->
<!DOCTYPE svg PUBLIC "-//W3C//DTD SVG 1.1//EN" "http://www.w3.org/Graphics/SVG/1.1/DTD/svg11.dtd">
<svg version="1.1" id="Capa_1" xmlns="http://www.w3.org/2000/svg" xmlns:xlink="http://www.w3.org/1999/xlink" x="0px" y="0px"
	 viewBox="0 0 595.3 595.3" enable-background="new 0 0 595.3 595.3" xml:space="preserve">
<path fill="#FFFFFF" d="M376,303.4l-126.7,68.5c-4.2,2.3-9.4-0.8-9.4-5.6l-0.1-137.4c0-4.8,5.2-7.9,9.4-5.6l126.8,69
	C380.5,294.6,380.5,301,376,303.4z"/>
<path fill="#FFFFFF" d="M484.2,0h-373C49.6,0,0,49.6,0,111.1v373c0,61.6,49.6,111.2,111.1,111.2h373c61.5,0,111.1-49.6,111.1-111.1
	v-373C595.3,49.6,545.7,0,484.2,0z M495.1,356.6c0,45.9-37.6,83.5-83.5,83.5h-228c-45.9,0-83.5-37.6-83.5-83.5v-118
	c0-45.9,37.6-83.5,83.5-83.5h228c45.9,0,83.5,37.6,83.5,83.5V356.6z"/>
</svg>
