<?xml version="1.0" encoding="utf-8"?>
<!-- Generator: Adobe Illustrator 18.0.0, SVG Export Plug-In . SVG Version: 6.00 Build 0)  -->
<!DOCTYPE svg PUBLIC "-//W3C//DTD SVG 1.1//EN" "http://www.w3.org/Graphics/SVG/1.1/DTD/svg11.dtd">
<svg version="1.1" id="Capa_1" xmlns="http://www.w3.org/2000/svg" xmlns:xlink="http://www.w3.org/1999/xlink" x="0px" y="0px"
	 viewBox="0 0 595.3 595.3" enable-background="new 0 0 595.3 595.3" xml:space="preserve">
<g>
	<g>
		<g>
			<path fill="#FFFFFF" d="M484.2,0h-373C49.6,0,0,49.6,0,111.1v373c0,61.6,49.6,111.2,111.1,111.2h373
				c61.5,0,111.1-49.6,111.1-111.1v-373C595.3,49.6,545.7,0,484.2,0z M446.5,230.2v9.9c0,97.2-73.4,208.3-208.3,208.3
				c-41.7,0-79.4-11.9-113.1-33.7c6,2,11.9,2,17.9,2c33.7,0,65.5-11.9,91.3-31.7c-31.7,0-59.5-21.8-67.5-51.6c4,0,9.9,2,13.9,2
				c6,0,13.9,0,19.8-2c-33.7-6-59.5-35.7-59.5-71.4l0,0c9.9,6,21.8,7.9,33.7,9.9C154.9,258,143,236.2,143,210.4
				c0-13.9,4-25.8,9.9-37.7c35.7,43.7,89.3,73.4,150.8,77.4c-2-6-2-11.9-2-15.9c0-39.7,33.7-73.4,73.4-73.4
				c21.8,0,39.7,7.9,53.6,23.8c15.9-4,31.7-9.9,45.6-17.9c-6,17.9-17.9,31.7-31.7,39.7c13.9-2,29.8-6,41.7-11.9
				C472.3,208.4,460.3,220.3,446.5,230.2z"/>
		</g>
	</g>
</g>
</svg>
