<?xml version="1.0" encoding="utf-8"?>
<!-- Generator: Adobe Illustrator 18.0.0, SVG Export Plug-In . SVG Version: 6.00 Build 0)  -->
<!DOCTYPE svg PUBLIC "-//W3C//DTD SVG 1.1//EN" "http://www.w3.org/Graphics/SVG/1.1/DTD/svg11.dtd">
<svg version="1.1" id="Capa_1" xmlns="http://www.w3.org/2000/svg" xmlns:xlink="http://www.w3.org/1999/xlink" x="0px" y="0px"
	 viewBox="0 0 595.3 595.3" enable-background="new 0 0 595.3 595.3" xml:space="preserve">
<path fill="#FFFFFF" d="M514.8,0H82.3C36.6,0,0.9,35.7,0.9,79.4V514c0,43.7,35.7,79.4,79.4,79.4h214.3V381H239
	c-7.9,0-13.9-6-13.9-13.9v-69.4c0-7.9,6-13.9,13.9-13.9h55.6v-65.5c0-77.4,47.6-119.1,115.1-119.1h55.6c7.9,0,13.9,6,13.9,13.9v57.6
	c0,7.9-6,13.9-13.9,13.9h-33.7c-37.7,0-43.7,17.9-43.7,43.7v57.4h81.4c7.9,0,13.9,6,13.9,13.9l-7.9,69.4c0,6-6,11.9-13.9,11.9H388
	v212.3h127c43.7,0,79.4-35.7,79.4-79.4V79.4C596.1,35.7,560.4,0,514.8,0z"/>
</svg>
